<svg
                      width="40"
                      height="30"
                      xmlns="http://www.w3.org/2000/svg"
                      viewBox="0 0 202 77.24"
                    >
                      <defs>
                        <style>
                          .a {
                            fill: #c79b3b;
                          }
                        </style>
                      </defs>
                      <title>League of Legends logo</title>
                      <path
                        class="a"
                        d="M601.82,528.87c-3.43-.88-6.4-1.62-6.4-4.44,0-2.22,1.68-3.64,4.38-3.64a5,5,0,0,1,5.25,4l6.73-3.23c-1.82-4.44-6.19-7.14-11.78-7.14-7.27,0-12.32,4.44-12.32,10.77,0,7.74,5.59,9.22,10.57,10.5,3.5.88,6.46,1.68,6.46,4.58,0,2.42-2,4-4.92,4s-5.45-1.62-6.13-4l-6.73,3.23c1.89,4.44,6.67,7.14,12.59,7.14,7.88,0,12.93-4.38,12.93-11.24,0-7.81-5.93-9.29-10.64-10.5Z"
                        transform="translate(-411 -473.38)"
                      />
                      <path
                        class="a"
                        d="M613,483.15v3.57h-5.72v3.37h5l-.94,3.43h-4v5.32h-3.91V483.15Z"
                        transform="translate(-411 -473.38)"
                      />
                      <path
                        class="a"
                        d="M593.54,486.79a4.38,4.38,0,1,1-4.38,4.38A4.37,4.37,0,0,1,593.54,486.79Zm0,12.52a8.18,8.18,0,1,0-8.21-8.21A8.19,8.19,0,0,0,593.54,499.31Z"
                        transform="translate(-411 -473.38)"
                      />
                      <path
                        class="a"
                        d="M521.76,549.61H529v-23l16.5,23h7.61V514.66H545.8V538l-16.29-23.3h-9.43l1.68,3.43Z"
                        transform="translate(-411 -473.38)"
                      />
                      <path
                        class="a"
                        d="M577.78,536.28a10.42,10.42,0,0,1-5.45,5.52,10.31,10.31,0,0,1-4,.81h-4.17V521.73h4.17a10.31,10.31,0,0,1,4,.81,10,10,0,0,1,5.45,5.52,10.84,10.84,0,0,1,0,8.21Zm-2.42-20.2a22.42,22.42,0,0,0-6.94-1.48H556.51v34.95h11.92a18.4,18.4,0,0,0,12.66-5,16.63,16.63,0,0,0,3.84-5.52,17.14,17.14,0,0,0-3.84-19.26A19,19,0,0,0,575.36,516.08Z"
                        transform="translate(-411 -473.38)"
                      />
                      <path
                        class="a"
                        d="M457.59,549.61H436.79V514.66h20.81v6.8H444.4v7.07h12.05l-1.82,6.6H444.4v7.68l13.2.07Z"
                        transform="translate(-411 -473.38)"
                      />
                      <path
                        class="a"
                        d="M505.13,521.46h13.2v-6.8H497.59v34.95h20.74v-6.73l-13.2-.07v-7.68h10.23l1.82-6.6H505.13Z"
                        transform="translate(-411 -473.38)"
                      />
                      <path
                        class="a"
                        d="M531.53,501a16.67,16.67,0,0,1-.94-6l.13-21.55h7.54l-.07,21.21a8.76,8.76,0,0,0,1.62,5.59,6.65,6.65,0,0,0,9.49.13l.13-.13a8.39,8.39,0,0,0,1.68-5.59l.07-21.28h7.68l-.13,21.75a18.28,18.28,0,0,1-.94,6,14.07,14.07,0,0,1-2.83,4.58,12.1,12.1,0,0,1-4.44,2.9,17.48,17.48,0,0,1-11.85-.07,11.48,11.48,0,0,1-4.38-3,12.64,12.64,0,0,1-2.76-4.58Z"
                        transform="translate(-411 -473.38)"
                      />
                      <path
                        class="a"
                        d="M493.69,498.3a17.66,17.66,0,0,1,.07-14,18.3,18.3,0,0,1,9.83-9.56,17.06,17.06,0,0,1,7.14-1.35,18.81,18.81,0,0,1,9.49,2.42,15.91,15.91,0,0,1,6.33,6.67l-6.87,3.23A9.67,9.67,0,0,0,516,481.8a10.67,10.67,0,0,0-5.39-1.35,11,11,0,0,0-4.17.81,9.83,9.83,0,0,0-3.37,2.36,10.87,10.87,0,0,0-2.29,3.5,11.39,11.39,0,0,0-.07,8.55,10.84,10.84,0,0,0,5.66,5.93,9.24,9.24,0,0,0,4.24.88,10.2,10.2,0,0,0,6.06-1.82,8.34,8.34,0,0,0,3.23-4.85H507.49l3.1-6.33H528c.07,1.35,0,4.24-.07,4.85a19.94,19.94,0,0,1-1.21,4.78,16.41,16.41,0,0,1-9.16,9.09,18.42,18.42,0,0,1-19.93-4.11,18.69,18.69,0,0,1-3.91-5.79Z"
                        transform="translate(-411 -473.38)"
                      />
                      <path
                        class="a"
                        d="M412.75,504.9V477.09L411,473.45h9.29v28.21h13.94l-2,6.87H411Z"
                        transform="translate(-411 -473.38)"
                      />
                      <path
                        class="a"
                        d="M412.75,546V518.16L411,514.53h9.29v28.21h13.94l-2,6.87H411Z"
                        transform="translate(-411 -473.38)"
                      />
                      <path
                        class="a"
                        d="M457.59,508.54H436.79V473.59h20.81v6.8H444.4v7.07h12.05l-1.82,6.6H444.4v7.61l13.2.07Z"
                        transform="translate(-411 -473.38)"
                      />
                      <path
                        class="a"
                        d="M583,508.54H562.23V473.59H583v6.8h-13.2v7.07h12.05l-1.82,6.6H569.84v7.61l13.2.07v6.8Z"
                        transform="translate(-411 -473.38)"
                      />
                      <path
                        class="a"
                        d="M477.53,483.29l4.38,11.78h-9Zm-9.76,25.25,2.63-6.8h14l2.69,6.8H495l-14.07-35.08H470.12l2.29,4.58L460,508.54Z"
                        transform="translate(-411 -473.38)"
                      />
                      <path
                        class="a"
                        d="M473.35,550.15a18.75,18.75,0,0,0,3.91.4,17.6,17.6,0,0,0,6.94-1.28,16.41,16.41,0,0,0,9.16-9.09,19.94,19.94,0,0,0,1.21-4.78,39.73,39.73,0,0,0,.07-4.92H477.26v.07l-3.1,6.33h12.39a8.34,8.34,0,0,1-3.23,4.85,10.47,10.47,0,0,1-7.95,1.62l-1.55-.4c-.27-.07-.47-.2-.74-.27a10.63,10.63,0,0,1-5.66-5.93,11.56,11.56,0,0,1,.07-8.62,12.11,12.11,0,0,1,2.29-3.5,9.92,9.92,0,0,1,3.43-2.29,11.23,11.23,0,0,1,4.17-.81,10,10,0,0,1,5.39,1.35,9.67,9.67,0,0,1,3.64,3.91l6.87-3.23a15.51,15.51,0,0,0-6.33-6.67,19.34,19.34,0,0,0-9.49-2.42,18.16,18.16,0,0,0-13,5.25,17.78,17.78,0,0,0-4,19.73,18.08,18.08,0,0,0,9,9.43,15.4,15.4,0,0,0,4,1.28Z"
                        transform="translate(-411 -473.38)"
                      />
                    </svg>